<?xml version="1.0" encoding="UTF-8" standalone="no"?>
<!-- Created with Inkscape (http://www.inkscape.org/) -->

<svg
   width="210mm"
   height="297mm"
   viewBox="0 0 210 297"
   version="1.1"
   id="svg5"
   xml:space="preserve"
   inkscape:version="1.2.2 (b0a8486541, 2022-12-01)"
   sodipodi:docname="Chapter01-006.jpg-even.svg"
   xmlns:inkscape="http://www.inkscape.org/namespaces/inkscape"
   xmlns:sodipodi="http://sodipodi.sourceforge.net/DTD/sodipodi-0.dtd"
   xmlns:xlink="http://www.w3.org/1999/xlink"
   xmlns="http://www.w3.org/2000/svg"
   xmlns:svg="http://www.w3.org/2000/svg"><sodipodi:namedview
     id="namedview7"
     pagecolor="#ffffff"
     bordercolor="#000000"
     borderopacity="0.25"
     inkscape:showpageshadow="2"
     inkscape:pageopacity="0.0"
     inkscape:pagecheckerboard="0"
     inkscape:deskcolor="#d1d1d1"
     inkscape:document-units="mm"
     showgrid="false"
     inkscape:zoom="1.0973349"
     inkscape:cx="440.15733"
     inkscape:cy="380.46726"
     inkscape:window-width="1920"
     inkscape:window-height="1012"
     inkscape:window-x="0"
     inkscape:window-y="0"
     inkscape:window-maximized="1"
     inkscape:current-layer="layer1" /><defs
     id="defs2" /><g
     inkscape:groupmode="layer"
     id="layer2"
     inkscape:label="Content"><image
       width="200.70026"
       height="297"
       preserveAspectRatio="none"
       xlink:href="Chapter01-006.jpg"
       id="image14261"
       x="0"
       y="0" /></g><g
     inkscape:label="Boxes"
     inkscape:groupmode="layer"
     id="layer1"
     style="display:none"><path
       id="sidebar001"
       style="vector-effect:non-scaling-stroke;fill:none;stroke:#00ff00;stroke-width:0.218569;stroke-dasharray:none;-inkscape-stroke:hairline"
       d="M 7.1816228,23.042631 H 49.52858 V 265.88398 H 7.1816228 Z" /><path
       id="maintext001"
       style="vector-effect:non-scaling-stroke;fill:none;stroke:#ff0000;stroke-width:0.261584;-inkscape-stroke:hairline"
       d="M 53.428148,23.042631 H 195.38592 V 281.68606 H 53.428148 Z" /><path
       id="bigimage001"
       style="vector-effect:non-scaling-stroke;fill:none;stroke:#0000ff;stroke-width:0.247491;-inkscape-stroke:hairline"
       d="m 206.1626,103.23275 h 137.00331 v 98.80086 H 206.1626 Z" /></g><g
     inkscape:groupmode="layer"
     id="layer3"
     inkscape:label="Mask"
     style="display:inline"><g
       id="g7150"
       style="display:inline"
       transform="translate(59.460059,-0.75993403)"><path
         id="rect6947"
         style="vector-effect:non-scaling-stroke;fill:#ffffff;stroke:none;stroke-width:0.269116;stroke-dasharray:none;-inkscape-stroke:hairline"
         d="m -6.031911,33.807654 c 0,2.26496 0,4.529919 0,6.794878 51.184465,0 102.36893,0 153.553391,0 0,-2.446451 0,-4.892902 0,-7.339352 -51.184461,0 -102.368926,0 -153.553391,0 0,0.181491 0,0.362984 0,0.544474 z" /><path
         id="rect6947-3"
         style="vector-effect:non-scaling-stroke;fill:#ffffff;stroke:none;stroke-width:0.300553;stroke-dasharray:none;-inkscape-stroke:hairline"
         d="m -6.031911,50.809716 c 0,2.830362 0,5.660723 0,8.491085 51.088111,0 102.176222,0 153.264331,0 0,-3.057159 0,-6.114316 0,-9.171475 -51.088109,0 -102.17622,-10e-7 -153.264331,0 0,0.226798 0,0.453595 0,0.68039 z" /><path
         id="rect6947-3-6"
         style="vector-effect:non-scaling-stroke;fill:#ffffff;stroke:none;stroke-width:0.300975;stroke-dasharray:none;-inkscape-stroke:hairline"
         d="m -6.031911,68.165551 c 0,2.849182 0,5.698364 0,8.547546 50.893229,0 101.786458,-1e-6 152.679681,0 0,-3.077489 0,-6.154975 0,-9.232461 -50.893223,0 -101.786452,0 -152.679681,0 0,0.228305 0,0.456609 0,0.684915 z" /><path
         id="rect6947-3-7"
         style="vector-effect:non-scaling-stroke;fill:#ffffff;stroke:none;stroke-width:0.289495;stroke-dasharray:none;-inkscape-stroke:hairline"
         d="m -6.031911,85.337985 c 0,3.155843 0,6.311685 0,9.467529 50.89323,0 101.786459,0 152.679681,0 0,-3.367064 0,-6.734128 0,-10.101193 -50.893222,0 -101.786451,0 -152.679681,0 0,0.211221 0,0.422443 0,0.633664 z" /><path
         id="rect6947-3-5"
         style="vector-effect:non-scaling-stroke;fill:#ffffff;stroke:none;stroke-width:0.296221;stroke-dasharray:none;-inkscape-stroke:hairline"
         d="m -6.031911,103.75348 c 0,2.75988 0,5.51977 0,8.27968 50.89323,0 101.786459,0 152.679681,0 0,-2.98106 0,-5.96209 0,-8.94313 -50.893222,0 -101.786451,0 -152.679681,0 0,0.22114 0,0.4423 0,0.66345 z" /><path
         id="rect6947-3-3"
         style="vector-effect:non-scaling-stroke;fill:#ffffff;stroke:none;stroke-width:0.296788;stroke-dasharray:none;-inkscape-stroke:hairline"
         d="m -6.031911,120.98112 c 0,2.7599 0,5.51978 0,8.27968 51.088111,0 102.176222,0 153.264331,0 0,-2.98104 0,-5.96209 0,-8.94312 -51.088109,0 -102.17622,0 -153.264331,0 0,0.22114 0,0.44229 0,0.66344 z" /><path
         id="rect6947-3-56"
         style="vector-effect:non-scaling-stroke;fill:#ffffff;stroke:none;stroke-width:0.300131;stroke-dasharray:none;-inkscape-stroke:hairline"
         d="m -6.031911,138.50546 c 0,2.83321 0,5.66642 0,8.49962 50.89323,0 101.786459,0 152.679681,0 0,-3.06022 0,-6.12046 0,-9.18068 -50.893222,0 -101.786451,0 -152.679681,0 0,0.22702 0,0.45404 0,0.68106 z" /><path
         id="rect6947-3-2"
         style="vector-effect:non-scaling-stroke;fill:#ffffff;stroke:none;stroke-width:0.303207;stroke-dasharray:none;-inkscape-stroke:hairline"
         d="m -6.031911,156.42744 c 0,2.88056 0,5.76112 0,8.64168 51.088111,0 102.176222,0 153.264331,0 0,-3.11138 0,-6.22276 0,-9.33414 -51.088109,0 -102.17622,0 -153.264331,0 0,0.23081 0,0.46164 0,0.69246 z" /><path
         id="rect6947-3-9"
         style="vector-effect:non-scaling-stroke;fill:#ffffff;stroke:none;stroke-width:0.287865;stroke-dasharray:none;-inkscape-stroke:hairline"
         d="m -6.031911,173.40369 c 0,2.59645 0,5.19287 0,7.78931 51.088111,0 102.176222,0 153.264331,0 0,-2.80448 0,-5.60898 0,-8.41346 -51.088109,0 -102.17622,0 -153.264331,0 0,0.20805 0,0.41609 0,0.62415 z" /><path
         id="rect6947-3-1"
         style="vector-effect:non-scaling-stroke;fill:#ffffff;stroke:none;stroke-width:0.274308;stroke-dasharray:none;-inkscape-stroke:hairline"
         d="m -6.031911,191.46092 c 0,3.07692 0,6.15383 0,9.23075 51.275654,0 102.551307,0 153.826961,0 0,-3.26514 0,-6.53029 0,-9.79542 -51.275654,0 -102.551307,0 -153.826961,0 0,0.18822 0,0.37645 0,0.56467 z" /><path
         id="rect6947-3-27"
         style="vector-effect:non-scaling-stroke;fill:#ffffff;stroke:none;stroke-width:0.285228;stroke-dasharray:none;-inkscape-stroke:hairline"
         d="m -6.031911,208.84921 c 0,2.54909 0,5.09818 0,7.64726 51.088111,0 102.176222,0 153.264331,0 0,-2.75334 0,-5.50668 0,-8.26002 -51.088109,0 -102.17622,0 -153.264331,0 0,0.20425 0,0.40851 0,0.61276 z" /><path
         id="rect6947-3-0"
         style="vector-effect:non-scaling-stroke;fill:#ffffff;stroke:none;stroke-width:0.282635;stroke-dasharray:none;-inkscape-stroke:hairline"
         d="m -6.031911,226.58655 c 0,3.20082 0,6.40163 0,9.60244 51.088111,0 102.176222,0 153.264331,0 0,-3.40137 0,-6.80275 0,-10.20412 -51.088109,0 -102.17622,0 -153.264331,0 0,0.20056 0,0.40113 0,0.60168 z" /><path
         id="rect6947-3-93"
         style="vector-effect:non-scaling-stroke;fill:#ffffff;stroke:none;stroke-width:0.271158;stroke-dasharray:none;-inkscape-stroke:hairline"
         d="m -6.031911,244.13376 c 0,2.94411 0,5.88821 0,8.83232 50.799294,0 101.598586,0 152.397881,0 0,-3.12858 0,-6.25717 0,-9.38575 -50.799295,0 -101.598587,1e-5 -152.397881,0 0,0.18448 0,0.36896 0,0.55343 z" /><path
         id="rect6947-3-60"
         style="vector-effect:non-scaling-stroke;fill:#ffffff;stroke:none;stroke-width:0.272589;stroke-dasharray:none;-inkscape-stroke:hairline"
         d="m -6.031911,261.28233 c 0,3.21381 0,6.42763 0,9.64145 50.765195,0 101.530389,0 152.295581,0 0,-3.40157 0,-6.80312 0,-10.20469 -50.765192,0 -101.530386,0 -152.295581,0 0,0.18774 0,0.37549 0,0.56324 z" /></g></g></svg>
